<svg xmlns="http://www.w3.org/2000/svg" width="191" height="32"><path d="M27.83 12.79a3.13 3.13 0 0 1-2.22-1s-7-7.1-9.26-9.32-4.82 0-4.82 0L1 13.07a3.11 3.11 0 0 0-1 2.41 3.11 3.11 0 0 0 1 2.41l10.53 10.59s2.61 2.22 4.82 0 9.26-9.32 9.26-9.32a3.18 3.18 0 0 1 2.22-1h-.2a3.14 3.14 0 0 1 2.22 1s7 7.11 9.26 9.32 4.82 0 4.82 0l10.53-10.59a3.09 3.09 0 0 0 1-2.41 3.09 3.09 0 0 0-1-2.41L43.93 2.48s-2.6-2.21-4.82 0l-9.26 9.32a3.1 3.1 0 0 1-2.22 1" style="fill:#7a00d9"/><path d="M66.72 5.09h3.18l2.74 7.58c1.6 4.47 3.32 9.67 3.32 9.67s1.79-5.05 3.52-9.67l2.86-7.58h3.18l1.81 20.77h-2.49l-.71-8.2c-.43-4.68-.74-9.21-.74-9.21S81.76 13 80 17.66l-2.89 7.73h-2.35L72 17.66c-1.75-5-3.14-9-3.14-9 0 .37-.25 4.5-.59 9l-.58 8.2h-2.5ZM105.26 5.4l2.28 7.39c1 3.45 3.14 10.54 3.14 10.54s1.42-6.81 2.28-10.5l1.75-7.74h2.53l-4.87 20.77h-3.2l-2-6.57c-2.1-6.77-3.12-10.38-3.12-10.38s-1 3.64-3 10.38l-1.94 6.57H96L90.56 5.09h2.62l1.94 7.7c.8 3.24 2.56 10.45 2.56 10.45s1.72-6.32 2.92-10.45l2.16-7.39ZM135.53 8.48a9.4 9.4 0 0 0-5.27-1.32c-4.37 0-7.82 3.23-7.82 8.22 0 5.15 3.27 8.38 8.1 8.38a8.74 8.74 0 0 0 5.05-1.57v2.62a9.86 9.86 0 0 1-5.23 1.29c-6.13 0-10.54-4-10.54-10.72a10.13 10.13 0 0 1 10.44-10.57 10.83 10.83 0 0 1 5.27 1.11ZM152.22 5.09c4.9 0 7.77 2.81 7.77 6.69 0 3.63-2.9 6.44-7.52 6.44h-3.2v7.64h-2.5V5.09Zm.25 11c3.23 0 5-1.88 5-4.31 0-2.74-1.82-4.56-5.21-4.56h-3v8.87ZM163.77 11.78a9.55 9.55 0 0 1 4.62-1.08c4.16 0 5.89 1.45 5.89 5.27v9.89h-2.41V24c-.52.86-1.78 2-4.37 2a4.52 4.52 0 0 1-4.87-4.56c0-3 2.47-4.74 6.38-4.74h2.83v-.8c0-2.35-.89-3-3.63-3a8.44 8.44 0 0 0-4.44 1.32Zm5.36 6.87c-2.8 0-3.94 1.26-3.94 2.71s1 2.62 3 2.62a3.31 3.31 0 0 0 3.63-3.33v-2ZM176.58 10.24h2.75l2 5.14c2.46 6.29 2.74 7.09 2.74 7.09s.25-.8 2.47-7.09l1.81-5.14H191l-5.64 15.22c-.43 1.18-2.61 8-2.61 8h-2.53s2.12-6.29 2.68-8Z" style="fill:#fff"/></svg>