<svg xmlns="http://www.w3.org/2000/svg" width="191" height="34"><path d="M27.83 11.3a3.18 3.18 0 0 1-2.22-1s-7-7.1-9.26-9.32-4.82 0-4.82 0L1 11.58A3.11 3.11 0 0 0 0 14a3.11 3.11 0 0 0 1 2.4L11.53 27s2.61 2.22 4.82 0 9.26-9.32 9.26-9.32a3.13 3.13 0 0 1 2.22-1h-.2a3.1 3.1 0 0 1 2.22 1L39.11 27c2.22 2.22 4.82 0 4.82 0l10.53-10.6a3.09 3.09 0 0 0 1-2.41 3.09 3.09 0 0 0-1-2.41L43.93 1s-2.6-2.22-4.82 0-9.26 9.32-9.26 9.32a3.14 3.14 0 0 1-2.22 1" style="fill:#7a00d9"/><path d="M66.37 3.6h3.17l2.74 7.58c1.61 4.46 3.33 9.67 3.33 9.67s1.79-5.05 3.51-9.67L82 3.6h3.17L87 24.36h-2.5l-.7-8.19C83.34 11.49 83 7 83 7s-1.64 4.56-3.36 9.21l-2.9 7.73h-2.33l-2.74-7.73c-1.76-5-3.14-9-3.14-9 0 .37-.25 4.5-.59 9l-.58 8.19h-2.5ZM104.9 3.91l2.28 7.39c1 3.45 3.15 10.54 3.15 10.54s1.41-6.81 2.28-10.51l1.75-7.73h2.53L112 24.36h-3.2l-2-6.56c-2.08-6.8-3.1-10.38-3.1-10.38s-1 3.63-3 10.38l-1.9 6.56h-3.17L90.21 3.6h2.62l1.94 7.7c.8 3.24 2.55 10.44 2.55 10.44s1.73-6.31 2.93-10.44l2.16-7.39ZM135.18 7a9.31 9.31 0 0 0-5.27-1.33c-4.37 0-7.82 3.24-7.82 8.23s3.26 8.38 8.1 8.38a8.74 8.74 0 0 0 5.05-1.57v2.62a9.89 9.89 0 0 1-5.24 1.28c-6.13 0-10.53-4-10.53-10.72a10.13 10.13 0 0 1 10.44-10.57 10.83 10.83 0 0 1 5.27 1.11ZM151.87 3.6c4.9 0 7.76 2.8 7.76 6.68 0 3.64-2.89 6.44-7.51 6.44h-3.21v7.64h-2.49V3.6Zm.25 11c3.23 0 5-1.88 5-4.32 0-2.74-1.82-4.56-5.21-4.56h-3v8.88ZM163.42 10.28A9.64 9.64 0 0 1 168 9.21c4.16 0 5.88 1.44 5.88 5.26v9.89h-2.4v-1.85c-.52.87-1.79 2-4.37 2a4.52 4.52 0 0 1-4.83-4.51c0-3 2.46-4.75 6.38-4.75h2.83v-.8c0-2.34-.89-3-3.64-3a8.44 8.44 0 0 0-4.43 1.33Zm5.36 6.87c-2.8 0-3.94 1.27-3.94 2.72s1 2.61 3 2.61a3.31 3.31 0 0 0 3.64-3.32v-2ZM176.58 9.57h2.74l2 5.14c2.46 6.29 2.74 7.09 2.74 7.09s.25-.8 2.46-7.09l1.82-5.14H191l-5.64 15.22c-.44 1.18-3 9.21-3 9.21h-2.52s2.52-7.46 3.08-9.21Z" style="fill:#fff"/></svg>