<svg xmlns="http://www.w3.org/2000/svg" width="191" height="34"><path d="M27.83 11.3a3.18 3.18 0 0 1-2.22-1s-7-7.1-9.26-9.32-4.82 0-4.82 0L1 11.58A3.11 3.11 0 0 0 0 14a3.11 3.11 0 0 0 1 2.4L11.53 27s2.61 2.22 4.82 0 9.26-9.32 9.26-9.32a3.13 3.13 0 0 1 2.22-1h-.2a3.1 3.1 0 0 1 2.22 1L39.11 27c2.22 2.22 4.82 0 4.82 0l10.53-10.6a3.09 3.09 0 0 0 1-2.41 3.09 3.09 0 0 0-1-2.41L43.93 1s-2.6-2.22-4.82 0-9.26 9.32-9.26 9.32a3.14 3.14 0 0 1-2.22 1" style="fill:#7a00d9"/><path d="M67 3.6h3.17l2.74 7.58c1.6 4.46 3.33 9.67 3.33 9.67s1.76-5.05 3.5-9.67l2.87-7.58h3.17l1.82 20.76h-2.5l-.71-8.19C84 11.49 83.65 7 83.65 7S82 11.52 80.3 16.17l-2.9 7.73H75l-2.74-7.73c-1.76-5-3.15-9-3.15-9 0 .37-.24 4.5-.58 9L68 24.36h-2.52ZM105.52 3.91l2.28 7.39c1 3.45 3.14 10.54 3.14 10.54s1.42-6.81 2.28-10.51L115 3.6h2.53l-4.87 20.76h-3.21l-2-6.56c-2.09-6.78-3.11-10.38-3.11-10.38s-.95 3.63-3 10.38l-1.94 6.56h-3.15L90.83 3.6h2.61l2 7.7c.8 3.24 2.55 10.44 2.55 10.44s1.73-6.31 2.93-10.44L103 3.91ZM135.8 7a9.31 9.31 0 0 0-5.27-1.33c-4.37 0-7.83 3.24-7.83 8.23s3.27 8.38 8.11 8.38a8.74 8.74 0 0 0 5.05-1.57v2.62a9.92 9.92 0 0 1-5.24 1.29c-6.13 0-10.53-4-10.53-10.72a10.13 10.13 0 0 1 10.44-10.58 10.85 10.85 0 0 1 5.27 1.11ZM152.49 3.6c4.9 0 7.76 2.8 7.76 6.68 0 3.64-2.89 6.44-7.51 6.44h-3.21v7.64H147V3.6Zm.25 11c3.23 0 5-1.88 5-4.32 0-2.74-1.82-4.56-5.21-4.56h-3v8.88ZM164 10.28a9.61 9.61 0 0 1 4.62-1.07c4.16 0 5.88 1.44 5.88 5.26v9.89h-2.4v-1.85c-.52.87-1.79 2-4.38 2A4.52 4.52 0 0 1 162.9 20c0-3 2.46-4.75 6.37-4.75h2.84v-.8c0-2.34-.89-3-3.64-3a8.41 8.41 0 0 0-4.47 1.27Zm5.36 6.87c-2.81 0-4 1.27-4 2.72s1 2.61 3 2.61a3.31 3.31 0 0 0 3.64-3.32v-2ZM176.58 9.57h2.74l2 5.14c2.46 6.29 2.74 7.09 2.74 7.09s.25-.8 2.46-7.09l1.82-5.14H191l-5.64 15.22c-.44 1.18-3 9.21-3 9.21h-2.52s2.52-7.46 3.08-9.21Z" style="fill:#fff"/></svg>